<svg xmlns="http://www.w3.org/2000/svg" width="21" height="16.8" viewBox="0 0 21 16.8">
  <path id="Icon_awesome-eye-slash" data-name="Icon awesome-eye-slash" d="M10.5,13.125A4.707,4.707,0,0,1,5.811,8.757L2.369,6.1a10.936,10.936,0,0,0-1.2,1.824,1.061,1.061,0,0,0,0,.958A10.524,10.524,0,0,0,10.5,14.7a10.192,10.192,0,0,0,2.556-.343l-1.7-1.317a4.729,4.729,0,0,1-.853.086Zm10.3,1.906-3.627-2.8a10.869,10.869,0,0,0,2.666-3.349,1.061,1.061,0,0,0,0-.958A10.524,10.524,0,0,0,10.5,2.1,10.111,10.111,0,0,0,5.666,3.337L1.492.11A.525.525,0,0,0,.755.2l-.644.829A.525.525,0,0,0,.2,1.768L19.508,16.689a.525.525,0,0,0,.737-.092l.644-.829a.525.525,0,0,0-.093-.737Zm-6.028-4.659-1.29-1a3.109,3.109,0,0,0-3.81-4,1.564,1.564,0,0,1,.305.926,1.53,1.53,0,0,1-.051.328L7.509,4.761A4.67,4.67,0,0,1,10.5,3.675,4.722,4.722,0,0,1,15.225,8.4a4.613,4.613,0,0,1-.456,1.972Z" transform="translate(0 0)" fill="#666"/>
</svg>
